<?xml version="1.0" encoding="UTF-8"?>
<svg xmlns="http://www.w3.org/2000/svg" width="800" height="600" viewBox="0 0 800 600">
  <rect width="800" height="600" fill="white"/>
  <text x="400" y="40" text-anchor="middle" font-family="Arial" font-size="18" font-weight="bold">Fehr-Schmidt Utility Comparison</text>
  <line x1="80" y1="500" x2="750" y2="500" stroke="black" stroke-width="2"/>
  <line x1="80" y1="500" x2="80" y2="80" stroke="black" stroke-width="2"/>
  <text x="70" y="505.0" text-anchor="end" font-family="Arial" font-size="11">-1400</text>
  <line x1="75" y1="500.0" x2="80" y2="500.0" stroke="black" stroke-width="1"/>
  <text x="70" y="445.0" text-anchor="end" font-family="Arial" font-size="11">-1186</text>
  <line x1="75" y1="440.0" x2="80" y2="440.0" stroke="black" stroke-width="1"/>
  <text x="70" y="385.0" text-anchor="end" font-family="Arial" font-size="11">-971</text>
  <line x1="75" y1="380.0" x2="80" y2="380.0" stroke="black" stroke-width="1"/>
  <text x="70" y="325.0" text-anchor="end" font-family="Arial" font-size="11">-757</text>
  <line x1="75" y1="320.0" x2="80" y2="320.0" stroke="black" stroke-width="1"/>
  <text x="70" y="265.0" text-anchor="end" font-family="Arial" font-size="11">-543</text>
  <line x1="75" y1="260.0" x2="80" y2="260.0" stroke="black" stroke-width="1"/>
  <text x="70" y="205.00000000000006" text-anchor="end" font-family="Arial" font-size="11">-329</text>
  <line x1="75" y1="200.00000000000006" x2="80" y2="200.00000000000006" stroke="black" stroke-width="1"/>
  <text x="70" y="145.0" text-anchor="end" font-family="Arial" font-size="11">-114</text>
  <line x1="75" y1="140.0" x2="80" y2="140.0" stroke="black" stroke-width="1"/>
  <text x="70" y="85.0" text-anchor="end" font-family="Arial" font-size="11">100</text>
  <line x1="75" y1="80.0" x2="80" y2="80.0" stroke="black" stroke-width="1"/>
  <rect x="160" y="408.77929719988595" width="80" height="67.1994439035335" fill="#d62728" stroke="black" stroke-width="2" opacity="0.6"/>
  <line x1="160" y1="441.737271826873" x2="240" y2="441.737271826873" stroke="black" stroke-width="2"/>
  <line x1="200" y1="560.7501746608496" x2="200" y2="408.77929719988595" stroke="black" stroke-width="1.5"/>
  <line x1="200" y1="475.97874110341945" x2="200" y2="844.2607739069779" stroke="black" stroke-width="1.5"/>
  <line x1="180" y1="560.7501746608496" x2="220" y2="560.7501746608496" stroke="black" stroke-width="1.5"/>
  <line x1="180" y1="844.2607739069779" x2="220" y2="844.2607739069779" stroke="black" stroke-width="1.5"/>
  <text x="200" y="520" text-anchor="middle" font-family="Arial" font-size="12">Original</text>
  <text x="200" y="535" text-anchor="middle" font-family="Arial" font-size="12">PoER</text>
  <rect x="360" y="657.0198135150573" width="80" height="1.6749235045563182" fill="#2ca02c" stroke="black" stroke-width="2" opacity="0.6"/>
  <line x1="360" y1="658.0769413372765" x2="440" y2="658.0769413372765" stroke="black" stroke-width="2"/>
  <line x1="400" y1="661.1992383853183" x2="400" y2="657.0198135150573" stroke="black" stroke-width="1.5"/>
  <line x1="400" y1="658.6947370196136" x2="400" y2="681.7627095493224" stroke="black" stroke-width="1.5"/>
  <line x1="380" y1="661.1992383853183" x2="420" y2="661.1992383853183" stroke="black" stroke-width="1.5"/>
  <line x1="380" y1="681.7627095493224" x2="420" y2="681.7627095493224" stroke="black" stroke-width="1.5"/>
  <text x="400" y="520" text-anchor="middle" font-family="Arial" font-size="12">F-PoER</text>
  <text x="400" y="535" text-anchor="middle" font-family="Arial" font-size="12">(Proposed)</text>
  <rect x="560" y="685.3335170755345" width="80" height="1.1148953713350238" fill="#1f77b4" stroke="black" stroke-width="2" opacity="0.6"/>
  <line x1="560" y1="685.8693260188526" x2="640" y2="685.8693260188526" stroke="black" stroke-width="2"/>
  <line x1="600" y1="688.2315986442073" x2="600" y2="685.3335170755345" stroke="black" stroke-width="1.5"/>
  <line x1="600" y1="686.4484124468695" x2="600" y2="691.1028500373297" stroke="black" stroke-width="1.5"/>
  <line x1="580" y1="688.2315986442073" x2="620" y2="688.2315986442073" stroke="black" stroke-width="1.5"/>
  <line x1="580" y1="691.1028500373297" x2="620" y2="691.1028500373297" stroke="black" stroke-width="1.5"/>
  <text x="600" y="520" text-anchor="middle" font-family="Arial" font-size="12">Weight-</text>
  <text x="600" y="535" text-anchor="middle" font-family="Arial" font-size="12">Based</text>
  <text x="30" y="290" text-anchor="middle" font-family="Arial" font-size="14" font-weight="bold" transform="rotate(-90, 30, 290)">Fehr-Schmidt Utility</text>
</svg>